<svg width="165" height="53" viewBox="0 0 165 53" xmlns="http://www.w3.org/2000/svg"><g style="fill:red"><g style="fill:#e40a0a;fill-opacity:1"><g style="fill:#e40a0a;fill-opacity:1"><path style="opacity:.91;fill:#e40a0a;fill-opacity:1;fill-rule:evenodd;stroke:none;stroke-width:1;stroke-linecap:butt;stroke-linejoin:miter;stroke-miterlimit:4;stroke-dasharray:none;stroke-dashoffset:0" transform="matrix(.46611 0 0 .38961 1.106 2.09)" d="M58.5 3.5q21.665-1.13 17.5 20-9.525 11.834-22.5 3.5-9.63-14.346 5-23.5"/></g><g style="fill:#e40a0a;fill-opacity:1"><path style="opacity:.93;fill:#e40a0a;fill-opacity:1;fill-rule:evenodd;stroke:none;stroke-width:1;stroke-linecap:butt;stroke-linejoin:miter;stroke-miterlimit:4;stroke-dasharray:none;stroke-dashoffset:0" transform="matrix(.46611 0 0 .38961 1.103 2.09)" d="M127.5 25.5v6q-2.968 2.502-7 2v13q-5.409.434-10.5-1a72.4 72.4 0 0 1-.5-12q-3.928-.402-7.5 1a203 203 0 0 1-3 23q-4.539 5.047-10.5 1.5a45.2 45.2 0 0 0-7.5-8.5 100.3 100.3 0 0 0 0 20 675 675 0 0 0 22.5 9.5 11.5 11.5 0 0 1 3.5 4.5 541 541 0 0 1 4.5 29.5q-1.024 12.766-13 8a6.98 6.98 0 0 1-2.5-3.5 2225 2225 0 0 0-4.5-25q-27.96-15.955-56 0a297 297 0 0 1-5.5 27q-6.5 6-13 0a14.4 14.4 0 0 1-1.5-6.5A542 542 0 0 1 20 84.5a11.5 11.5 0 0 1 3.5-4.5l21-8.5a67.2 67.2 0 0 0 .5-20 34.7 34.7 0 0 0-6.5 7.5q-9.54 4.887-11.5-5.5-.9-9.51-2-19-3.57-1.402-7.5-1a72.4 72.4 0 0 1-.5 12q-5.091 1.435-10.5 1v-13q-4.032.502-7-2v-6a21.5 21.5 0 0 1 7-1 43.1 43.1 0 0 1 1-13q4.5-2 9 0a43.1 43.1 0 0 1 1 13h7q-.302-6.205 6-7 6.303.795 6 7a61 61 0 0 1 11 .5q16 21 32 0a61 61 0 0 1 11-.5q-.301-6.205 6-7 6.301.795 6 7h7a43.1 43.1 0 0 1 1-13q4.5-2 9 0a43.1 43.1 0 0 1 1 13 21.5 21.5 0 0 1 7 1m-90 9q2.17-1.67 5-.5a36 36 0 0 0-3.5 4.5q-.315-2.337-1.5-4m47 0q2.17-1.67 5-.5a15.3 15.3 0 0 0-1.5 4.5q-1.423-2.39-3.5-4"/></g></g></g><g style="fill:#1d1d1d;fill-opacity:1"><text xml:space="preserve" font-family="'Open Sans', sans-serif" font-size="18" style="font-style:normal;font-variant:normal;font-weight:400;font-stretch:normal;font-size:18px;font-family:Elephant;-inkscape-font-specification:&quot;Elephant, Normal&quot;;font-variant-ligatures:normal;font-variant-caps:normal;font-variant-numeric:normal;font-variant-east-asian:normal;white-space:pre;opacity:1;fill:#1d1d1d;fill-opacity:1;fill-rule:nonzero;stroke:none;stroke-width:1;stroke-linecap:butt;stroke-linejoin:miter;stroke-miterlimit:4;stroke-dasharray:none;stroke-dashoffset:0" transform="matrix(.96203 0 0 2.04837 111.507 19.72)"><tspan x="-50.16" y="5.65" style="font-style:normal;font-variant:normal;font-weight:400;font-stretch:normal;font-size:18px;font-family:Elephant;-inkscape-font-specification:&quot;Elephant, Normal&quot;;font-variant-ligatures:normal;font-variant-caps:normal;font-variant-numeric:normal;font-variant-east-asian:normal;fill:#1d1d1d;fill-opacity:1">Nguvu Gym</tspan></text></g><g style="fill:#292929;fill-opacity:1"><text xml:space="preserve" font-family="'Open Sans', sans-serif" font-size="18" style="font-style:normal;font-variant:normal;font-weight:400;font-stretch:normal;font-size:18px;font-family:Stencil;-inkscape-font-specification:&quot;Stencil, Normal&quot;;font-variant-ligatures:normal;font-variant-caps:normal;font-variant-numeric:normal;font-variant-east-asian:normal;white-space:pre;opacity:1;fill:#292929;fill-opacity:1;fill-rule:nonzero;stroke:none;stroke-width:1;stroke-linecap:butt;stroke-linejoin:miter;stroke-miterlimit:4;stroke-dasharray:none;stroke-dashoffset:0" transform="matrix(.44217 0 0 .78868 117.046 43.755)"><tspan x="-129.63" y="5.65" style="font-style:normal;font-variant:normal;font-weight:400;font-stretch:normal;font-size:18px;font-family:Stencil;-inkscape-font-specification:&quot;Stencil, Normal&quot;;font-variant-ligatures:normal;font-variant-caps:normal;font-variant-numeric:normal;font-variant-east-asian:normal;white-space:pre;fill:#292929;fill-opacity:1">THE ULTIMATE GYM CENTER </tspan></text></g></svg>